<svg version="1.1" id="Layer_1" xmlns="http://www.w3.org/2000/svg" xmlns:xlink="http://www.w3.org/1999/xlink" x="0px" y="0px"
	 width="100%" viewBox="0 0 1024 1008" enable-background="new 0 0 1024 1008" xml:space="preserve">
<path fill="#000000" opacity="1.000000" stroke="none" 
	d="
M100.656265,560.552246 
	C101.918953,540.629089 109.161064,523.172729 118.257973,506.208008 
	C128.523895,487.063202 141.870987,470.532440 158.740555,456.930084 
	C166.083511,451.009216 173.828751,445.559326 181.622971,440.234680 
	C188.240707,435.713745 189.457901,428.955353 189.770828,421.928223 
	C190.289276,410.285736 189.515366,398.625183 190.536880,386.962189 
	C191.999878,370.258545 197.183212,354.838928 204.296204,339.739777 
	C211.106918,325.282318 219.854202,312.337921 230.730209,300.778259 
	C243.346878,287.368530 258.015961,276.815735 274.571808,268.603027 
	C285.305359,263.278564 296.721771,260.040527 307.902344,256.154846 
	C313.876953,254.078461 320.460632,253.400467 326.743317,252.082672 
	C337.000122,249.931274 341.778046,242.679214 344.639954,234.518845 
	C356.385437,201.028229 376.575806,174.076492 405.509552,153.783463 
	C416.911041,145.786865 429.405457,139.823257 442.918976,135.735214 
	C468.021057,128.141495 493.205688,127.040344 518.777283,132.468643 
	C524.110840,133.600845 529.598389,133.580460 534.874634,135.501694 
	C539.838074,137.309036 543.966492,134.239426 547.373901,131.025803 
	C552.664856,126.035782 557.400208,120.454552 562.716003,115.493393 
	C578.256165,100.989609 595.806519,89.837433 615.825012,82.207008 
	C635.130005,74.848541 654.901428,73.588722 675.120972,74.687912 
	C680.936829,75.004074 686.784424,74.587250 692.569580,75.652740 
	C703.796448,77.720444 714.534363,81.230400 725.231873,85.249855 
	C738.079651,90.077255 749.844727,96.617134 760.944763,104.491394 
	C773.567566,113.445892 784.544922,124.244904 795.446594,135.185028 
	C811.355896,151.150421 824.440002,169.267410 836.361694,188.210602 
	C843.594604,199.703461 849.896667,211.791489 856.093445,223.925217 
	C864.015320,239.436539 869.973755,255.747116 875.771912,272.026489 
	C881.024719,286.774841 884.877686,302.076477 888.659790,317.365814 
	C892.090759,331.235626 894.407837,345.282623 897.124207,359.235016 
	C899.816772,373.065216 900.996338,387.265076 901.848206,401.362701 
	C903.557434,429.649170 904.263672,458.014648 901.000305,486.224548 
	C898.809692,505.161072 896.390747,524.078796 892.009827,542.751465 
	C889.331238,554.168518 886.242920,565.481812 883.062012,576.717407 
	C880.066467,587.298218 876.045715,597.665100 871.907471,607.942444 
	C867.074402,619.945618 861.970398,631.788757 856.191101,643.363525 
	C847.735291,660.298706 838.535950,676.760986 827.959412,692.505798 
	C817.081665,708.699158 804.742432,723.589661 790.889038,737.251404 
	C779.225647,748.753357 766.011475,758.280579 751.297668,765.375305 
	C740.163025,770.744202 734.191345,779.630249 729.955322,790.644592 
	C725.007568,803.509155 718.026306,815.329407 709.873413,826.469055 
	C697.245361,843.723267 682.599976,859.051636 666.384766,872.950439 
	C653.125366,884.315674 639.311340,894.950134 624.414429,904.047180 
	C612.688232,911.208008 600.961609,918.575378 588.526672,924.316345 
	C572.452576,931.737427 556.139709,938.712402 539.358582,944.604980 
	C526.053955,949.276794 512.434387,952.775085 498.947174,956.671753 
	C491.580719,958.799927 483.809357,960.143127 476.170685,961.604919 
	C464.780457,963.784668 453.260071,965.014893 441.809387,966.673401 
	C412.685913,970.891846 383.543915,971.813416 354.245178,970.393555 
	C343.434845,969.869690 332.549438,969.889893 321.838043,968.547058 
	C302.320801,966.100281 282.834564,963.219910 263.808777,957.957092 
	C244.504333,952.617126 225.609146,946.246826 207.350845,937.848816 
	C185.264130,927.689819 164.501251,915.497986 145.761261,900.029236 
	C127.725807,885.142151 112.493301,867.819214 101.342957,847.090027 
	C94.988426,835.276611 89.976486,823.026917 86.355164,810.038025 
	C82.757378,797.133545 80.543015,784.226501 80.669304,770.848511 
	C80.783051,758.798889 83.439369,747.265991 86.285240,735.619507 
	C88.869003,725.045776 92.691429,715.086853 97.153366,705.275146 
	C102.580597,693.340576 109.088287,681.969666 116.854103,671.461792 
	C121.652260,664.969421 121.002396,658.770081 118.187263,652.282959 
	C110.069862,633.577454 102.286491,614.958984 100.381943,594.169495 
	C99.355949,582.969910 98.021263,572.050964 100.656265,560.552246 
M370.849243,589.472107 
	C357.993408,592.555298 344.958649,594.700745 332.135345,598.126099 
	C315.137421,602.666626 298.495605,608.053894 282.303589,614.774231 
	C268.550934,620.482178 255.143753,626.977783 242.149567,634.341675 
	C229.909454,641.278198 218.216095,648.972900 206.933212,657.346008 
	C192.647675,667.947388 180.029175,680.317261 168.485825,693.777649 
	C159.727692,703.990295 153.006622,715.530090 146.852142,727.499268 
	C139.556686,741.687439 135.696625,756.776001 135.474319,772.455200 
	C135.143280,795.803833 143.832245,816.346069 157.713409,834.890747 
	C165.714386,845.579773 175.304688,854.624390 185.630173,862.963867 
	C199.096939,873.840454 213.885986,882.545837 229.595215,889.757385 
	C239.324310,894.223633 249.227936,898.152161 259.370575,901.647888 
	C268.425964,904.768921 277.545380,907.555054 286.841766,909.651855 
	C296.807922,911.899719 306.798920,914.023010 316.970764,915.452820 
	C324.990448,916.580139 333.060333,918.148621 341.070557,918.461365 
	C360.039825,919.202026 379.051270,918.908264 398.045776,918.932678 
	C404.037994,918.940369 410.133636,919.274536 416.002350,918.336060 
	C429.685608,916.147888 443.479706,914.947632 457.136719,912.204041 
	C470.757751,909.467712 484.349396,906.666138 497.666382,902.856995 
	C512.664978,898.566833 527.317444,893.236328 541.760254,887.138916 
	C553.813721,882.050232 565.816650,876.899719 577.189819,870.551331 
	C602.685730,856.319763 626.905579,840.194702 647.327332,819.021484 
	C660.718628,805.137207 672.080811,789.892090 680.148560,772.138428 
	C685.372009,760.643921 688.511414,748.737244 689.527405,736.394165 
	C690.962341,718.961914 687.596558,702.276794 679.711548,686.460693 
	C674.051453,675.107422 666.916931,664.903137 658.465454,655.528564 
	C648.301025,644.253906 636.221741,635.459595 623.569397,627.150330 
	C606.072815,615.659668 587.101501,607.414917 567.513306,600.696106 
	C550.625977,594.903748 533.205750,590.867920 515.494446,587.916748 
	C502.541138,585.758423 489.502594,583.904236 476.522003,583.500671 
	C455.939484,582.860535 435.285675,582.168396 414.663757,584.229004 
	C400.304810,585.663696 385.937836,586.888611 370.849243,589.472107 
M590.115112,528.433289 
	C588.119507,526.964783 586.180237,525.411560 584.119385,524.041077 
	C567.717834,513.133667 550.800903,503.187378 532.883728,494.876404 
	C519.382263,488.613617 505.697723,482.885010 491.653046,478.036743 
	C478.226715,473.401978 464.562408,469.551422 450.761322,466.132355 
	C444.956421,464.694305 439.010315,464.053284 433.285217,462.579071 
	C419.762970,459.097015 405.845306,458.592072 392.160919,456.401642 
	C386.937988,455.565613 381.424133,456.456024 376.237457,455.501801 
	C361.994110,452.881409 347.544708,453.317719 333.503479,454.849548 
	C321.414429,456.168365 309.188904,456.104279 297.046753,458.621399 
	C286.604706,460.786041 275.757965,461.991150 265.444611,464.767792 
	C248.061478,469.447876 231.152893,475.584839 215.256683,484.421112 
	C185.585007,500.914764 164.679260,524.166626 157.217682,557.961182 
	C153.721085,573.797791 154.624573,589.604309 159.970596,604.990234 
	C160.981262,607.898987 162.444305,610.982361 164.578568,613.097107 
	C168.548187,617.030518 172.924545,614.821472 176.834610,612.459045 
	C189.572937,604.762817 201.968384,596.453003 215.003586,589.305359 
	C233.011475,579.430908 251.581726,570.564514 270.876587,563.455322 
	C286.940063,557.536743 303.065430,551.771240 319.848541,547.965698 
	C325.282562,546.733521 330.933197,545.834900 336.113647,543.939453 
	C344.137634,541.003601 352.595520,540.295837 360.764893,539.069641 
	C370.176880,537.657043 379.663635,536.128845 389.165253,535.011108 
	C401.821106,533.522217 414.605560,532.738037 427.196503,532.187073 
	C446.295624,531.351379 465.504059,531.205750 484.806488,533.176147 
	C504.529510,535.189331 524.169250,536.971741 543.713684,540.541626 
	C552.964539,542.231262 562.204773,544.188843 571.397827,546.065552 
	C576.934509,547.195862 582.718079,548.275696 588.116455,550.299622 
	C594.449707,552.674072 600.859314,554.775757 607.453308,556.252380 
	C610.171204,556.861023 613.420776,557.794312 615.120544,554.671631 
	C616.986267,551.243958 614.710876,548.622498 612.268005,546.440674 
	C605.346008,540.258362 598.285095,534.239563 590.115112,528.433289 
M750.560242,323.006958 
	C752.799866,327.072632 755.121338,331.095734 757.264160,335.211853 
	C764.355591,348.834198 771.908020,362.224304 777.649048,376.521973 
	C781.657227,386.503937 786.086426,396.318512 790.006836,406.333405 
	C792.900330,413.724976 795.677795,421.208435 797.784729,428.850067 
	C800.631653,439.175476 802.959106,449.692505 806.021790,459.915314 
	C808.759949,469.054932 810.182861,478.448303 811.680786,487.638275 
	C813.891052,501.197632 815.800354,514.942078 816.411743,528.771912 
	C816.903503,539.896301 819.585876,550.812256 819.897156,561.970947 
	C819.968567,564.532532 820.912537,566.622681 823.680481,567.117554 
	C826.456482,567.613831 827.440796,565.259155 828.425964,563.447205 
	C830.008362,560.536987 831.436035,557.510864 832.600830,554.410400 
	C840.846008,532.462158 844.563721,509.420319 847.226624,486.359894 
	C848.725342,473.381134 849.316345,460.158478 849.833618,447.027527 
	C850.252197,436.400269 849.326599,425.789917 848.632935,415.155273 
	C847.615112,399.551270 846.424744,384.011139 844.164612,368.546844 
	C843.587524,364.598755 843.664246,360.594940 842.645264,356.669128 
	C840.779480,349.481415 839.101074,342.238708 837.577148,334.970184 
	C835.877930,326.865662 833.447266,318.972687 831.086975,311.056305 
	C829.528076,305.827789 828.087402,300.586029 826.032104,295.483612 
	C822.953003,287.839569 821.095276,279.677704 817.723694,272.183441 
	C812.582275,260.755157 807.578613,249.271515 801.775940,238.101273 
	C792.029236,219.338470 780.859375,201.557312 767.422058,185.377731 
	C753.408203,168.503860 737.215942,153.879883 718.040588,142.723541 
	C707.420410,136.544617 696.032104,131.921341 684.178406,130.661423 
	C669.994080,129.153793 655.547302,128.481735 641.277039,133.021057 
	C628.461304,137.097687 617.084534,143.080627 607.628601,152.467453 
	C602.281616,157.775345 602.800354,164.921646 608.104431,169.009521 
	C609.799133,170.315613 611.558533,171.540039 613.316345,172.761536 
	C633.092896,186.504303 651.667480,201.719437 668.943848,218.491501 
	C687.901978,236.896164 705.263794,256.684723 720.895874,278.027802 
	C731.389709,292.355438 741.399231,306.958801 750.560242,323.006958 
M276.326721,336.825256 
	C270.929626,340.861542 267.185455,346.402863 263.207336,351.662018 
	C256.111511,361.042847 251.498047,371.740204 249.179642,383.181976 
	C247.648041,390.740631 246.028397,398.506653 248.284744,406.363037 
	C249.168106,409.438812 250.970657,411.062042 253.994019,410.752502 
	C260.936676,410.041687 268.035187,409.761810 274.735565,408.019287 
	C286.261261,405.021881 298.088928,404.154358 309.753601,403.045532 
	C334.611450,400.682556 359.584900,400.290070 384.597229,401.892700 
	C398.728180,402.798096 412.736877,404.645294 426.636139,406.814117 
	C440.601685,408.993317 454.728546,410.994476 468.246674,415.654510 
	C475.418579,418.126862 483.131683,418.956848 490.265045,421.252777 
	C505.245453,426.074310 520.193176,431.058350 534.766296,437.206238 
	C546.801086,442.283325 558.899353,447.263062 570.546692,453.094452 
	C590.406250,463.037384 609.690735,474.066895 627.975464,486.772766 
	C645.843384,499.188995 662.853760,512.656860 679.098328,527.127930 
	C681.257568,529.051453 683.625732,533.625427 686.585327,531.333984 
	C690.101990,528.611206 686.757996,524.281738 685.197388,521.389160 
	C679.077393,510.045563 672.967834,498.709595 666.201782,487.683075 
	C652.821228,465.877228 636.166565,446.852692 618.744751,428.421814 
	C603.340515,412.125458 586.215576,397.665771 568.313354,384.188904 
	C554.425598,373.734161 540.077393,363.952911 525.054260,355.118042 
	C510.054047,346.296631 494.758270,338.068787 478.605713,331.703003 
	C464.153961,326.007538 449.646729,320.464752 434.600220,316.204254 
	C419.354401,311.887268 403.818024,308.331512 388.342865,306.951599 
	C359.895721,304.414917 331.193542,304.286407 304.230988,316.879517 
	C293.867249,321.719971 284.707092,328.077698 276.326721,336.825256 
M547.758606,200.952271 
	C539.542603,196.695602 530.632690,194.060043 521.854553,191.634995 
	C513.138855,189.227203 504.183868,187.282135 495.001587,186.382980 
	C481.035004,185.015274 467.469055,187.059937 454.876953,192.080505 
	C441.367859,197.466675 429.264954,205.857529 419.310364,216.917831 
	C413.374359,223.513168 408.066986,230.525284 404.392670,238.580627 
	C400.020874,248.165207 402.871582,253.552307 412.932678,254.825134 
	C420.653992,255.801971 428.052734,258.169220 435.451965,260.191498 
	C441.775452,261.919769 448.201050,263.623138 454.507385,265.516876 
	C463.365631,268.176910 472.408447,270.727417 480.814728,274.210419 
	C490.671204,278.294342 500.717346,282.063049 510.506653,286.401825 
	C523.825745,292.305023 536.848877,298.772766 549.349609,306.059967 
	C563.915161,314.550812 578.199585,323.583557 591.691467,333.881104 
	C605.417175,344.357086 619.285706,354.601593 632.159302,366.141388 
	C652.458801,384.337738 671.133728,404.009064 688.207825,425.301422 
	C703.445435,444.303589 718.359680,463.466125 731.060181,484.304565 
	C739.842346,498.713989 748.449219,513.203674 755.852356,528.376404 
	C756.859070,530.439636 757.952148,532.094910 760.374329,532.201111 
	C762.021301,531.134766 761.830994,529.540283 761.866455,528.074768 
	C762.366028,507.424072 758.070435,487.397552 753.413086,467.497162 
	C751.126587,457.726562 747.289368,448.326263 744.332764,438.703430 
	C740.054932,424.779999 734.440735,411.373535 728.559753,398.091614 
	C721.201538,381.473572 712.496643,365.512238 703.443115,349.774261 
	C690.773987,327.751251 675.937866,307.158325 659.556152,287.793762 
	C635.092346,258.875427 607.596924,233.258713 574.863281,213.713715 
	C566.472412,208.703629 557.797791,204.299927 547.758606,200.952271 
z"/>
</svg>